<svg xmlns="http://www.w3.org/2000/svg" width="18" height="18" viewBox="0 0 18 18" fill="none">
  <path d="M9 11.25C10.2426 11.25 11.25 10.2426 11.25 9C11.25 7.75736 10.2426 6.75 9 6.75C7.75736 6.75 6.75 7.75736 6.75 9C6.75 10.2426 7.75736 11.25 9 11.25Z" stroke="currentColor" stroke-width="1.5"/>
  <path d="M7.5 2.25L7.125 3.375C6.9 3.45 6.675 3.525 6.525 3.675L5.325 3.375L4.125 5.625L5.025 6.45C4.95 6.675 4.95 6.9 4.95 7.125V7.875C4.95 8.1 4.95 8.325 5.025 8.55L4.125 9.375L5.325 11.625L6.525 11.325C6.75 11.475 6.9 11.55 7.125 11.625L7.5 12.75H9.75L10.125 11.625C10.35 11.55 10.575 11.475 10.725 11.325L11.925 11.625L13.125 9.375L12.225 8.55C12.3 8.325 12.3 8.1 12.3 7.875V7.125C12.3 6.9 12.3 6.675 12.225 6.45L13.125 5.625L11.925 3.375L10.725 3.675C10.5 3.525 10.35 3.45 10.125 3.375L9.75 2.25H7.5Z" stroke="currentColor" stroke-width="1.5" stroke-linecap="round" stroke-linejoin="round"/>
</svg>
